<svg width="40" height="40" viewBox="0 0 40 40" fill="none" xmlns="http://www.w3.org/2000/svg">
<g clip-path="url(#clip0_35_266)">
<path d="M10.2834 30C10.6277 29.0241 11.2663 28.1791 12.111 27.5813C12.9558 26.9836 13.9652 26.6626 15 26.6626C16.0349 26.6626 17.0443 26.9836 17.889 27.5813C18.7338 28.1791 19.3724 29.0241 19.7167 30H36.6667V33.3333H19.7167C19.3724 34.3092 18.7338 35.1543 17.889 35.752C17.0443 36.3498 16.0349 36.6708 15 36.6708C13.9652 36.6708 12.9558 36.3498 12.111 35.752C11.2663 35.1543 10.6277 34.3092 10.2834 33.3333H3.33337V30H10.2834ZM20.2834 18.3333C20.6277 17.3575 21.2663 16.5124 22.111 15.9147C22.9558 15.3169 23.9652 14.9959 25 14.9959C26.0349 14.9959 27.0443 15.3169 27.889 15.9147C28.7338 16.5124 29.3724 17.3575 29.7167 18.3333H36.6667V21.6667H29.7167C29.3724 22.6426 28.7338 23.4876 27.889 24.0854C27.0443 24.6831 26.0349 25.0041 25 25.0041C23.9652 25.0041 22.9558 24.6831 22.111 24.0854C21.2663 23.4876 20.6277 22.6426 20.2834 21.6667H3.33337V18.3333H20.2834ZM10.2834 6.66667C10.6277 5.69078 11.2663 4.84573 12.111 4.24799C12.9558 3.65025 13.9652 3.32925 15 3.32925C16.0349 3.32925 17.0443 3.65025 17.889 4.24799C18.7338 4.84573 19.3724 5.69078 19.7167 6.66667H36.6667V10H19.7167C19.3724 10.9759 18.7338 11.8209 17.889 12.4187C17.0443 13.0164 16.0349 13.3374 15 13.3374C13.9652 13.3374 12.9558 13.0164 12.111 12.4187C11.2663 11.8209 10.6277 10.9759 10.2834 10H3.33337V6.66667H10.2834ZM15 10C15.4421 10 15.866 9.82441 16.1786 9.51185C16.4911 9.19929 16.6667 8.77537 16.6667 8.33334C16.6667 7.89131 16.4911 7.46739 16.1786 7.15483C15.866 6.84227 15.4421 6.66667 15 6.66667C14.558 6.66667 14.1341 6.84227 13.8215 7.15483C13.509 7.46739 13.3334 7.89131 13.3334 8.33334C13.3334 8.77537 13.509 9.19929 13.8215 9.51185C14.1341 9.82441 14.558 10 15 10ZM25 21.6667C25.4421 21.6667 25.866 21.4911 26.1786 21.1785C26.4911 20.866 26.6667 20.442 26.6667 20C26.6667 19.558 26.4911 19.1341 26.1786 18.8215C25.866 18.5089 25.4421 18.3333 25 18.3333C24.558 18.3333 24.1341 18.5089 23.8215 18.8215C23.509 19.1341 23.3334 19.558 23.3334 20C23.3334 20.442 23.509 20.866 23.8215 21.1785C24.1341 21.4911 24.558 21.6667 25 21.6667ZM15 33.3333C15.4421 33.3333 15.866 33.1577 16.1786 32.8452C16.4911 32.5326 16.6667 32.1087 16.6667 31.6667C16.6667 31.2246 16.4911 30.8007 16.1786 30.4882C15.866 30.1756 15.4421 30 15 30C14.558 30 14.1341 30.1756 13.8215 30.4882C13.509 30.8007 13.3334 31.2246 13.3334 31.6667C13.3334 32.1087 13.509 32.5326 13.8215 32.8452C14.1341 33.1577 14.558 33.3333 15 33.3333Z" fill="#3E4958"/>
</g>
<defs>
<clipPath id="clip0_35_266">
<rect width="40" height="40" fill="white"/>
</clipPath>
</defs>
</svg>
