<svg width="22" height="22" viewBox="0 0 22 22" fill="none" xmlns="http://www.w3.org/2000/svg">
<path d="M9.72615 2.04881C10.3131 1.10484 11.6869 1.10484 12.2739 2.04881L14.3633 5.40946C14.5698 5.74159 14.8979 5.97994 15.2776 6.0737L19.1194 7.02242C20.1986 7.28891 20.6231 8.59554 19.9067 9.44544L17.3562 12.4712C17.1042 12.7702 16.9789 13.1558 17.007 13.5459L17.2919 17.4929C17.372 18.6016 16.2605 19.4091 15.2308 18.9904L11.565 17.4998C11.2027 17.3524 10.7973 17.3524 10.435 17.4998L6.76919 18.9904C5.73951 19.4091 4.62803 18.6016 4.70805 17.4929L4.99296 13.5459C5.02112 13.1558 4.89581 12.7702 4.64375 12.4712L2.09327 9.44544C1.37687 8.59554 1.80142 7.28891 2.88056 7.02242L6.72242 6.0737C7.1021 5.97994 7.43015 5.74159 7.63665 5.40946L9.72615 2.04881Z" fill="#F6C002"/>
</svg>
