<svg width="45" height="45" viewBox="0 0 45 45" fill="none" xmlns="http://www.w3.org/2000/svg">
<path d="M36.6507 33.6621C36.8473 33.8581 37.0034 34.0909 37.1098 34.3473C37.2163 34.6037 37.2711 34.8786 37.2711 35.1562C37.2711 35.4339 37.2163 35.7088 37.1098 35.9652C37.0034 36.2216 36.8473 36.4544 36.6507 36.6504C36.2526 37.0433 35.7158 37.2636 35.1565 37.2636C34.5973 37.2636 34.0605 37.0433 33.6624 36.6504L22.5003 25.4883L11.3382 36.6504C10.9401 37.0433 10.4033 37.2636 9.84405 37.2636C9.28475 37.2636 8.74796 37.0433 8.34991 36.6504C8.15326 36.4544 7.99723 36.2216 7.89076 35.9652C7.7843 35.7088 7.72949 35.4339 7.72949 35.1562C7.72949 34.8786 7.7843 34.6037 7.89076 34.3473C7.99723 34.0909 8.15326 33.8581 8.34991 33.6621L19.512 22.5L8.34991 11.3379C7.95364 10.9416 7.73101 10.4042 7.73101 9.84375C7.73101 9.56626 7.78567 9.29149 7.89186 9.03512C7.99805 8.77876 8.15369 8.54582 8.34991 8.34961C8.54612 8.15339 8.77906 7.99775 9.03542 7.89156C9.29179 7.78537 9.56656 7.73071 9.84405 7.73071C10.4045 7.73071 10.9419 7.95334 11.3382 8.34961L22.5003 19.5117L33.6624 8.34961C34.0587 7.95334 34.5961 7.73071 35.1565 7.73071C35.717 7.73071 36.2544 7.95334 36.6507 8.34961C37.047 8.74588 37.2696 9.28334 37.2696 9.84375C37.2696 10.4042 37.047 10.9416 36.6507 11.3379L25.4886 22.5L36.6507 33.6621Z" fill="black"/>
</svg>
